<!--?xml version="1.0" standalone="no"?-->
              <svg id="sw-js-blob-svg" viewBox="0 0 100 100" xmlns="http://www.w3.org/2000/svg" version="1.1">
                    <defs> 
                        <linearGradient id="sw-gradient" x1="0" x2="1" y1="1" y2="0">
                            <stop id="stop1" stop-color="rgba(248, 117, 55, 1)" offset="0%"></stop>
                            <stop id="stop2" stop-color="rgba(251, 168, 31, 1)" offset="100%"></stop>
                        </linearGradient>
                    </defs>
                <path fill="url(#sw-gradient)" d="M19.3,-33.2C25.3,-29.8,30.9,-25.5,34.5,-19.8C38.1,-14.1,39.7,-7,39,-0.4C38.4,6.3,35.5,12.6,32.6,19.5C29.8,26.4,26.9,34,21.4,37.7C16,41.5,8,41.4,0.5,40.6C-7.1,39.8,-14.2,38.3,-19.8,34.7C-25.4,31.1,-29.5,25.2,-34,19.1C-38.6,13,-43.4,6.5,-43.9,-0.2C-44.3,-7,-40.2,-13.9,-35.9,-20.3C-31.5,-26.6,-26.7,-32.4,-20.7,-35.8C-14.7,-39.1,-7.3,-40.1,-0.4,-39.5C6.6,-38.8,13.2,-36.5,19.3,-33.2Z" width="100%" height="100%" transform="translate(50 50)" stroke-width="0" style="transition: 0.3s;"></path>
              </svg>